<mxfile host="app.diagrams.net" modified="2023-09-04T07:25:02.006Z" agent="Mozilla/5.0 (Windows NT 10.0; Win64; x64) AppleWebKit/537.36 (KHTML, like Gecko) Chrome/116.0.0.0 Safari/537.36 Edg/116.0.1938.69" version="21.7.2" etag="vQitVJB3qZ_25JZv2vwN" type="github">
  <diagram name="第 1 页" id="5LOI4qLSsdR498hdZnC5">
    <mxGraphModel>
      <root>
        <mxCell id="0" />
        <mxCell id="1" parent="0" />
      </root>
    </mxGraphModel>
  </diagram>
</mxfile>
